<svg xmlns="http://www.w3.org/2000/svg" xmlns:xlink="http://www.w3.org/1999/xlink" xmlns:lucid="lucid" width="1423.62" height="667.72"><g transform="translate(0 0)" lucid:page-tab-id="0_0"><path d="M0 0h1423.62v667.72H0z" fill="#fff"/><path d="M0 8c0-4.42 3.58-8 8-8h324c4.42 0 8 3.58 8 8v102.72c0 4.4-3.58 8-8 8H8c-4.42 0-8-3.6-8-8z" stroke="#000" stroke-opacity="0" fill="#ffe6be"/><use xlink:href="#a" transform="matrix(1,0,0,1,0,7.105427357601002e-15) translate(12.928034838531667 67.72711120144103)"/><path d="M0 346.72c0-4.42 3.58-8 8-8h324c4.42 0 8 3.58 8 8v104c0 4.4-3.58 8-8 8H8c-4.42 0-8-3.6-8-8z" stroke="#000" stroke-opacity="0" fill="#ffe6be"/><use xlink:href="#b" transform="matrix(1,0,0,1,0,338.7166483293372) translate(59.260089310619456 39.268361201441024)"/><use xlink:href="#c" transform="matrix(1,0,0,1,0,338.7166483293372) translate(28.986641651707153 90.65590300360256)"/><path d="M520 8c0-4.42 3.58-8 8-8h344c4.42 0 8 3.58 8 8v244c0 4.42-3.58 8-8 8H528c-4.42 0-8-3.58-8-8z" stroke="#000" stroke-opacity="0" fill="#ffe6be"/><use xlink:href="#d" transform="matrix(1,0,0,1,520,2.842170943040401e-14) translate(28.697238026968797 62.695861201441026)"/><use xlink:href="#e" transform="matrix(1,0,0,1,520,2.842170943040401e-14) translate(60.99288061791061 114.08340300360257)"/><use xlink:href="#f" transform="matrix(1,0,0,1,520,2.842170943040401e-14) translate(118.9228177884029 165.4709448057641)"/><use xlink:href="#g" transform="matrix(1,0,0,1,520,2.842170943040401e-14) translate(41.66307612056975 216.85848660792564)"/><path d="M1060.42 8c0-4.42 3.58-8 8-8h344c4.4 0 8 3.58 8 8v244c0 4.42-3.6 8-8 8h-344c-4.42 0-8-3.58-8-8z" stroke="#000" stroke-opacity="0" fill="#ffe6be"/><use xlink:href="#h" transform="matrix(1,0,0,1,1060.415070076586,0) translate(66.70260748481746 111.44586120144103)"/><use xlink:href="#i" transform="matrix(1,0,0,1,1060.415070076586,0) translate(112.38042242007215 162.83340300360257)"/><path d="M549.1 551.18c0-4.42 3.6-8 8-8h304c4.42 0 8 3.58 8 8v104c0 4.4-3.58 8-8 8h-304c-4.4 0-8-3.6-8-8z" stroke="#000" stroke-opacity="0" fill="#ffe6be"/><use xlink:href="#j" transform="matrix(1,0,0,1,549.1049330396281,543.1752215876481) translate(86.84912451775614 39.268361201441024)"/><use xlink:href="#k" transform="matrix(1,0,0,1,549.1049330396281,543.1752215876481) translate(82.74525833216686 90.65590300360256)"/><path d="M340 398.72h75c2.76 0 5-2.24 5-5V135c0-2.76 2.24-5 5-5h61.67" stroke="#000" stroke-width="9" fill="none"/><path/><path d="M505.44 130l-14.27 4.64v-9.28z" stroke="#000" stroke-width="9"/><path d="M880 130h147.1" stroke="#000" stroke-width="9" fill="none"/><path/><path d="M1045.85 130l-14.26 4.64v-9.28z" stroke="#000" stroke-width="9"/><path d="M1240.42 260v338.18c0 2.76-2.24 5-5 5h-333" stroke="#000" stroke-width="9" fill="none"/><path/><path d="M883.67 603.18l14.26-4.64v9.27z" stroke="#000" stroke-width="9"/><path d="M170 118.72V305.4" stroke="#000" stroke-width="9" fill="none"/><path/><path d="M170 324.15l-4.64-14.26h9.28z" stroke="#000" stroke-width="9"/><defs><path d="M30 0v-248h30L58-37l132-211h39V0h-30l1-209L70 0H30" id="l"/><path d="M57-190v80h85v-80h32V0h-32v-87H57V0H25v-190h32" id="m"/><path d="M56-190L54-37l88-153h34V0h-30l2-153L59 0H25v-190h31" id="n"/><path d="M57-190v167h83v-167h32v167h26v95h-29V0H25v-190h32" id="o"/><path d="M141-36C126-15 110 5 73 4 37 3 15-17 15-53c-1-64 63-63 125-63 3-35-9-54-41-54-24 1-41 7-42 31l-33-3c5-37 33-52 76-52 45 0 72 20 72 64v82c-1 20 7 32 28 27v20c-31 9-61-2-59-35zM48-53c0 20 12 33 32 33 41-3 63-29 60-74-43 2-92-5-92 41" id="p"/><path d="M153 0v-167H87C74-108 81-27 38 0 29 5 12 6 2 1v-22c51 4 39-64 49-112 5-25 4-25 8-57h126V0h-32" id="q"/><path d="M152-53C154 19 21 22 9-41l28-8c5 36 84 42 81-4-1-29-28-34-58-35v-24c28 0 55-4 55-30 0-19-14-29-34-28-20 0-35 7-38 25l-28-3c4-33 30-46 66-46 37 0 66 15 66 50 0 27-20 41-44 44 27 5 48 17 49 47" id="r"/><path d="M20-138c-1-64 85-51 150-52V0h-32v-81H94L39 0H3l60-83c-28-5-43-24-43-55zm33 3c0 40 46 33 85 33v-66c-39 0-85-6-85 33" id="s"/><g id="a"><use transform="matrix(0.11895264306055912,0,0,0.11895264306055912,0,0)" xlink:href="#l"/><use transform="matrix(0.11895264306055912,0,0,0.11895264306055912,30.689781909624255,0)" xlink:href="#m"/><use transform="matrix(0.11895264306055912,0,0,0.11895264306055912,54.24240523561496,0)" xlink:href="#n"/><use transform="matrix(0.11895264306055912,0,0,0.11895264306055912,78.15188649078735,0)" xlink:href="#o"/><use transform="matrix(0.11895264306055912,0,0,0.11895264306055912,102.65613096126253,0)" xlink:href="#n"/><use transform="matrix(0.11895264306055912,0,0,0.11895264306055912,126.56561221643491,0)" xlink:href="#p"/><use transform="matrix(0.11895264306055912,0,0,0.11895264306055912,150.35614082854673,0)" xlink:href="#q"/><use transform="matrix(0.11895264306055912,0,0,0.11895264306055912,175.33619587126415,0)" xlink:href="#n"/><use transform="matrix(0.11895264306055912,0,0,0.11895264306055912,199.24567712643653,0)" xlink:href="#r"/><use transform="matrix(0.11895264306055912,0,0,0.11895264306055912,218.8728632314288,0)" xlink:href="#p"/><use transform="matrix(0.11895264306055912,0,0,0.11895264306055912,242.6633918435406,0)" xlink:href="#o"/><use transform="matrix(0.11895264306055912,0,0,0.11895264306055912,267.1676363140158,0)" xlink:href="#n"/><use transform="matrix(0.11895264306055912,0,0,0.11895264306055912,291.0771175691882,0)" xlink:href="#s"/></g><path d="M160-131c35 5 61 23 61 61C221 17 115-2 30 0v-248c76 3 177-17 177 60 0 33-19 50-47 57zm-97-11c50-1 110 9 110-42 0-47-63-36-110-37v79zm0 115c55-2 124 14 124-45 0-56-70-42-124-44v89" id="t"/><path d="M147-167H93C83-118 77-63 59-23h88v-144zM24-23c26-44 31-102 41-167h113v167h26v95h-29V0H32v72H4v-95h20" id="u"/><g id="b"><use transform="matrix(0.11895264306055912,0,0,0.11895264306055912,0,0)" xlink:href="#t"/><use transform="matrix(0.11895264306055912,0,0,0.11895264306055912,28.54863433453419,0)" xlink:href="#p"/><use transform="matrix(0.11895264306055912,0,0,0.11895264306055912,52.33916294664601,0)" xlink:href="#q"/><use transform="matrix(0.11895264306055912,0,0,0.11895264306055912,77.31921798936344,0)" xlink:href="#n"/><use transform="matrix(0.11895264306055912,0,0,0.11895264306055912,101.22869924453582,0)" xlink:href="#u"/><use transform="matrix(0.11895264306055912,0,0,0.11895264306055912,126.20875428725323,0)" xlink:href="#p"/><use transform="matrix(0.11895264306055912,0,0,0.11895264306055912,149.99928289936506,0)" xlink:href="#o"/><use transform="matrix(0.11895264306055912,0,0,0.11895264306055912,174.50352736984024,0)" xlink:href="#n"/><use transform="matrix(0.11895264306055912,0,0,0.11895264306055912,198.41300862501262,0)" xlink:href="#s"/></g><path d="M75-87c-4 1-14 3-19 3V0H24v-190h32v83c26-2 31-21 43-41l26-42h33l-61 86L159 0h-35" id="v"/><path d="M100-194c62-1 85 37 85 99 1 63-27 99-86 99S16-35 15-95c0-66 28-99 85-99zM99-20c44 1 53-31 53-75 0-43-8-75-51-75s-53 32-53 75 10 74 51 75" id="w"/><path d="M217-194c52 0 64 44 64 98S268 2 217 4c-29 1-44-13-55-34l1 105h-30V-31C124-8 108 4 79 4 29 4 16-37 15-94c0-57 15-98 64-100 29 0 44 14 55 33l-1-100h30v101c10-23 24-34 54-34zM89-170c-37 1-41 36-41 75 0 37 3 74 40 74 39 0 45-35 45-76-1-39-6-73-44-73zM207-20c38 0 41-36 41-75 0-38-3-74-40-74-41 0-45 36-45 80 1 38 7 69 44 69" id="x"/><path d="M121-190v23H57V0H25v-190h96" id="y"/><path d="M179-190L93 31C79 59 56 82 12 73V49c39 6 53-20 64-50L1-190h34L92-34l54-156h33" id="z"/><path d="M115-194c55 1 70 41 70 98S169 2 115 4C84 4 66-9 55-30l1 105H24l-1-265h31l2 30c10-21 28-34 59-34zm-8 174c40 0 45-34 45-75s-6-73-45-74c-42 0-51 32-51 76 0 43 10 73 51 73" id="A"/><g id="c"><use transform="matrix(0.11895264306055912,0,0,0.11895264306055912,0,0)" xlink:href="#v"/><use transform="matrix(0.11895264306055912,0,0,0.11895264306055912,19.151375532750016,0)" xlink:href="#w"/><use transform="matrix(0.11895264306055912,0,0,0.11895264306055912,42.94190414486184,0)" xlink:href="#m"/><use transform="matrix(0.11895264306055912,0,0,0.11895264306055912,66.49452747085255,0)" xlink:href="#x"/><use transform="matrix(0.11895264306055912,0,0,0.11895264306055912,101.70450981677806,0)" xlink:href="#n"/><use transform="matrix(0.11895264306055912,0,0,0.11895264306055912,125.61399107195044,0)" xlink:href="#y"/><use transform="matrix(0.11895264306055912,0,0,0.11895264306055912,141.19678731288369,0)" xlink:href="#z"/><use transform="matrix(0.11895264306055912,0,0,0.11895264306055912,162.1324524915421,0)" xlink:href="#A"/><use transform="matrix(0.11895264306055912,0,0,0.11895264306055912,185.9229811036539,0)" xlink:href="#p"/><use transform="matrix(0.11895264306055912,0,0,0.11895264306055912,209.71350971576572,0)" xlink:href="#o"/><use transform="matrix(0.11895264306055912,0,0,0.11895264306055912,234.2177541862409,0)" xlink:href="#n"/><use transform="matrix(0.11895264306055912,0,0,0.11895264306055912,258.1272354414133,0)" xlink:href="#n"/></g><path d="M197 0v-219H63V0H30v-248h201V0h-34" id="B"/><path d="M100-194c63 0 86 42 84 106H49c0 40 14 67 53 68 26 1 43-12 49-29l28 8c-11 28-37 45-77 45C44 4 14-33 15-96c1-61 26-98 85-98zm52 81c6-60-76-77-97-28-3 7-6 17-6 28h103" id="C"/><path d="M170-190V0h-32v-167H57V0H25v-190h145" id="D"/><path d="M96-169c-40 0-48 33-48 73s9 75 48 75c24 0 41-14 43-38l32 2c-6 37-31 61-74 61-59 0-76-41-82-99-10-93 101-131 147-64 4 7 5 14 7 22l-32 3c-4-21-16-35-41-35" id="E"/><g id="d"><use transform="matrix(0.11895264306055912,0,0,0.11895264306055912,0,0)" xlink:href="#B"/><use transform="matrix(0.11895264306055912,0,0,0.11895264306055912,30.689781909624255,0)" xlink:href="#A"/><use transform="matrix(0.11895264306055912,0,0,0.11895264306055912,54.48031052173608,0)" xlink:href="#C"/><use transform="matrix(0.11895264306055912,0,0,0.11895264306055912,78.2708391338479,0)" xlink:href="#D"/><use transform="matrix(0.11895264306055912,0,0,0.11895264306055912,101.34765188759637,0)" xlink:href="#A"/><use transform="matrix(0.11895264306055912,0,0,0.11895264306055912,125.1381804997082,0)" xlink:href="#w"/><use transform="matrix(0.11895264306055912,0,0,0.11895264306055912,148.92870911182,0)" xlink:href="#o"/><use transform="matrix(0.11895264306055912,0,0,0.11895264306055912,172.95714301005296,0)" xlink:href="#C"/><use transform="matrix(0.11895264306055912,0,0,0.11895264306055912,196.74767162216477,0)" xlink:href="#E"/><use transform="matrix(0.11895264306055912,0,0,0.11895264306055912,218.15914737306542,0)" xlink:href="#E"/><use transform="matrix(0.11895264306055912,0,0,0.11895264306055912,239.57062312396607,0)" xlink:href="#n"/><use transform="matrix(0.11895264306055912,0,0,0.11895264306055912,263.4801043791385,0)" xlink:href="#m"/><use transform="matrix(0.11895264306055912,0,0,0.11895264306055912,287.03272770512916,0)" xlink:href="#y"/></g><path d="M6-190h153v23H98V0H67v-167H6v-23" id="F"/><g id="e"><use transform="matrix(0.11895264306055912,0,0,0.11895264306055912,0,0)" xlink:href="#B"/><use transform="matrix(0.11895264306055912,0,0,0.11895264306055912,30.689781909624255,0)" xlink:href="#w"/><use transform="matrix(0.11895264306055912,0,0,0.11895264306055912,54.48031052173608,0)" xlink:href="#E"/><use transform="matrix(0.11895264306055912,0,0,0.11895264306055912,75.89178627263672,0)" xlink:href="#F"/><use transform="matrix(0.11895264306055912,0,0,0.11895264306055912,95.40001973456842,0)" xlink:href="#A"/><use transform="matrix(0.11895264306055912,0,0,0.11895264306055912,119.19054834668025,0)" xlink:href="#w"/><use transform="matrix(0.11895264306055912,0,0,0.11895264306055912,142.98107695879207,0)" xlink:href="#C"/><use transform="matrix(0.11895264306055912,0,0,0.11895264306055912,166.7716055709039,0)" xlink:href="#m"/><use transform="matrix(0.11895264306055912,0,0,0.11895264306055912,190.3242288968946,0)" xlink:href="#n"/><use transform="matrix(0.11895264306055912,0,0,0.11895264306055912,214.23371015206698,0)" xlink:href="#C"/></g><g id="f"><use transform="matrix(0.11895264306055912,0,0,0.11895264306055912,0,0)" xlink:href="#y"/><use transform="matrix(0.11895264306055912,0,0,0.11895264306055912,15.582796240933245,0)" xlink:href="#A"/><use transform="matrix(0.11895264306055912,0,0,0.11895264306055912,39.37332485304507,0)" xlink:href="#p"/><use transform="matrix(0.11895264306055912,0,0,0.11895264306055912,63.1638534651569,0)" xlink:href="#x"/><use transform="matrix(0.11895264306055912,0,0,0.11895264306055912,98.37383581108239,0)" xlink:href="#p"/></g><path d="M176-55C176 11 93 0 25 0v-190c61 3 142-15 144 47 1 29-21 35-39 44 27 3 46 16 46 44zm-34 0c0-41-47-30-85-32v64c38-1 85 8 85-32zm-6-83c0-36-44-26-79-28v56c34-2 79 8 79-28" id="G"/><path d="M138 0h-27L54-167c3 53 2 111 2 167H25v-190h49c16 56 39 106 51 166 11-61 34-110 50-166h48V0h-31l2-168" id="H"/><path d="M165-267c8 67-110 75-125 20-2-7-4-13-4-20h29c1 23 13 35 36 35s34-13 36-35h28zM56-190L54-37l88-153h34V0h-30l2-153L59 0H25v-190h31" id="I"/><g id="g"><use transform="matrix(0.11895264306055912,0,0,0.11895264306055912,0,0)" xlink:href="#r"/><use transform="matrix(0.11895264306055912,0,0,0.11895264306055912,19.627186104992255,0)" xlink:href="#p"/><use transform="matrix(0.11895264306055912,0,0,0.11895264306055912,43.417714717104076,0)" xlink:href="#G"/><use transform="matrix(0.11895264306055912,0,0,0.11895264306055912,66.13766954167087,0)" xlink:href="#n"/><use transform="matrix(0.11895264306055912,0,0,0.11895264306055912,90.04715079684325,0)" xlink:href="#E"/><use transform="matrix(0.11895264306055912,0,0,0.11895264306055912,111.4586265477439,0)" xlink:href="#n"/><use transform="matrix(0.11895264306055912,0,0,0.11895264306055912,135.36810780291628,0)" xlink:href="#H"/><use transform="matrix(0.11895264306055912,0,0,0.11895264306055912,164.7494106388744,0)" xlink:href="#w"/><use transform="matrix(0.11895264306055912,0,0,0.11895264306055912,188.5399392509862,0)" xlink:href="#E"/><use transform="matrix(0.11895264306055912,0,0,0.11895264306055912,209.95141500188686,0)" xlink:href="#F"/><use transform="matrix(0.11895264306055912,0,0,0.11895264306055912,228.98383789157631,0)" xlink:href="#C"/><use transform="matrix(0.11895264306055912,0,0,0.11895264306055912,252.77436650368813,0)" xlink:href="#I"/></g><path d="M170-56C169 10 92 0 25 0v-190h32v80c58-2 114-1 113 54zm-34 0c0-38-42-32-79-32v66c38 0 79 5 79-34zm66 56v-190h32V0h-32" id="J"/><g id="h"><use transform="matrix(0.11895264306055912,0,0,0.11895264306055912,0,0)" xlink:href="#t"/><use transform="matrix(0.11895264306055912,0,0,0.11895264306055912,28.54863433453419,0)" xlink:href="#J"/><use transform="matrix(0.11895264306055912,0,0,0.11895264306055912,59.238416244158444,0)" xlink:href="#u"/><use transform="matrix(0.11895264306055912,0,0,0.11895264306055912,84.21847128687585,0)" xlink:href="#C"/><use transform="matrix(0.11895264306055912,0,0,0.11895264306055912,106.58156818226097,0)" xlink:href="#q"/><use transform="matrix(0.11895264306055912,0,0,0.11895264306055912,131.56162322497838,0)" xlink:href="#C"/><use transform="matrix(0.11895264306055912,0,0,0.11895264306055912,155.3521518370902,0)" xlink:href="#m"/><use transform="matrix(0.11895264306055912,0,0,0.11895264306055912,178.9047751630809,0)" xlink:href="#n"/><use transform="matrix(0.11895264306055912,0,0,0.11895264306055912,202.81425641825328,0)" xlink:href="#C"/></g><path d="M131-81C94-61 21-56 21-118v-72h32c4 39-16 99 29 99 19 0 33-5 49-8v-91h31V0h-31v-81" id="K"/><g id="i"><use transform="matrix(0.11895264306055912,0,0,0.11895264306055912,0,0)" xlink:href="#K"/><use transform="matrix(0.11895264306055912,0,0,0.11895264306055912,22.244144252324556,0)" xlink:href="#p"/><use transform="matrix(0.11895264306055912,0,0,0.11895264306055912,46.03467286443638,0)" xlink:href="#m"/><use transform="matrix(0.11895264306055912,0,0,0.11895264306055912,69.58729619042708,0)" xlink:href="#v"/><use transform="matrix(0.11895264306055912,0,0,0.11895264306055912,88.7386717231771,0)" xlink:href="#w"/><use transform="matrix(0.11895264306055912,0,0,0.11895264306055912,112.52920033528893,0)" xlink:href="#G"/></g><path d="M212-179c-10-28-35-45-73-45-59 0-87 40-87 99 0 60 29 101 89 101 43 0 62-24 78-52l27 14C228-24 195 4 139 4 59 4 22-46 18-125c-6-104 99-153 187-111 19 9 31 26 39 46" id="L"/><path d="M105-20c41 1 53-27 53-68 0-40-9-69-50-69s-54 27-54 69c0 40 12 68 51 68zM47-134c10-28 31-47 68-47 56 0 76 33 76 92 1 60-28 90-86 93C-9 9 1-201 72-238c29-15 73-21 110-26v28c-67 12-144 10-135 102" id="M"/><g id="j"><use transform="matrix(0.11895264306055912,0,0,0.11895264306055912,0,0)" xlink:href="#L"/><use transform="matrix(0.11895264306055912,0,0,0.11895264306055912,30.808734552684815,0)" xlink:href="#M"/><use transform="matrix(0.11895264306055912,0,0,0.11895264306055912,55.31297902316,0)" xlink:href="#w"/><use transform="matrix(0.11895264306055912,0,0,0.11895264306055912,79.10350763527182,0)" xlink:href="#A"/><use transform="matrix(0.11895264306055912,0,0,0.11895264306055912,102.89403624738365,0)" xlink:href="#v"/><use transform="matrix(0.11895264306055912,0,0,0.11895264306055912,122.52122235237593,0)" xlink:href="#p"/></g><g id="k"><use transform="matrix(0.11895264306055912,0,0,0.11895264306055912,0,0)" xlink:href="#p"/><use transform="matrix(0.11895264306055912,0,0,0.11895264306055912,23.790528612111824,0)" xlink:href="#E"/><use transform="matrix(0.11895264306055912,0,0,0.11895264306055912,45.20200436301246,0)" xlink:href="#E"/><use transform="matrix(0.11895264306055912,0,0,0.11895264306055912,66.61348011391311,0)" xlink:href="#C"/><use transform="matrix(0.11895264306055912,0,0,0.11895264306055912,88.97657700929823,0)" xlink:href="#F"/><use transform="matrix(0.11895264306055912,0,0,0.11895264306055912,108.00899989898768,0)" xlink:href="#w"/><use transform="matrix(0.11895264306055912,0,0,0.11895264306055912,131.7995285110995,0)" xlink:href="#G"/></g></defs></g></svg>