<svg xmlns="http://www.w3.org/2000/svg" xmlns:xlink="http://www.w3.org/1999/xlink" xmlns:lucid="lucid" width="2122.83" height="554.33"><g transform="translate(0 0)" lucid:page-tab-id="0_0"><path d="M0 9.53c0-2.76 2.24-5 5-5h1010c2.76 0 5 2.24 5 5V544c0 2.76-2.24 5-5 5H5c-2.76 0-5-2.24-5-5z" stroke="#000" stroke-width="2" fill="#fff"/><use xlink:href="#a" transform="matrix(1,0,0,1,0,4.530051922860025) translate(5.01 66.0625)"/><use xlink:href="#b" transform="matrix(1,0,0,1,0,4.530051922860025) translate(126.89888888888892 66.0625)"/><use xlink:href="#c" transform="matrix(1,0,0,1,0,4.530051922860025) translate(255.67666666666668 66.0625)"/><use xlink:href="#d" transform="matrix(1,0,0,1,0,4.530051922860025) translate(346.56555555555553 66.0625)"/><use xlink:href="#e" transform="matrix(1,0,0,1,0,4.530051922860025) translate(5.01 114.0625)"/><use xlink:href="#f" transform="matrix(1,0,0,1,0,4.530051922860025) translate(5.01 162.0625)"/><use xlink:href="#g" transform="matrix(1,0,0,1,0,4.530051922860025) translate(91.67666666666666 162.0625)"/><use xlink:href="#h" transform="matrix(1,0,0,1,0,4.530051922860025) translate(129.45444444444445 162.0625)"/><use xlink:href="#i" transform="matrix(1,0,0,1,0,4.530051922860025) translate(163.8988888888889 162.0625)"/><use xlink:href="#j" transform="matrix(1,0,0,1,0,4.530051922860025) translate(272.56555555555553 162.0625)"/><use xlink:href="#k" transform="matrix(1,0,0,1,0,4.530051922860025) translate(294.01 162.0625)"/><use xlink:href="#e" transform="matrix(1,0,0,1,0,4.530051922860025) translate(5.01 210.0625)"/><use xlink:href="#l" transform="matrix(1,0,0,1,0,4.530051922860025) translate(5.01 258.0625)"/><use xlink:href="#m" transform="matrix(1,0,0,1,0,4.530051922860025) translate(156.01 258.0625)"/><use xlink:href="#n" transform="matrix(1,0,0,1,0,4.530051922860025) translate(322.34333333333336 258.0625)"/><use xlink:href="#o" transform="matrix(1,0,0,1,0,4.530051922860025) translate(373.34333333333336 258.0625)"/><use xlink:href="#p" transform="matrix(1,0,0,1,0,4.530051922860025) translate(5.01 306.0625)"/><use xlink:href="#q" transform="matrix(1,0,0,1,0,4.530051922860025) translate(27.23222222222222 306.0625)"/><use xlink:href="#r" transform="matrix(1,0,0,1,0,4.530051922860025) translate(58.23222222222222 306.0625)"/><use xlink:href="#s" transform="matrix(1,0,0,1,0,4.530051922860025) translate(191.45444444444445 306.0625)"/><use xlink:href="#t" transform="matrix(1,0,0,1,0,4.530051922860025) translate(260.2322222222222 306.0625)"/><use xlink:href="#u" transform="matrix(1,0,0,1,0,4.530051922860025) translate(341.34333333333336 306.0625)"/><use xlink:href="#v" transform="matrix(1,0,0,1,0,4.530051922860025) translate(478.34333333333336 306.0625)"/><use xlink:href="#w" transform="matrix(1,0,0,1,0,4.530051922860025) translate(593.6766666666667 306.0625)"/><use xlink:href="#p" transform="matrix(1,0,0,1,0,4.530051922860025) translate(5.01 354.0625)"/><use xlink:href="#v" transform="matrix(1,0,0,1,0,4.530051922860025) translate(27.23222222222222 354.0625)"/><use xlink:href="#x" transform="matrix(1,0,0,1,0,4.530051922860025) translate(142.56555555555556 354.0625)"/><use xlink:href="#y" transform="matrix(1,0,0,1,0,4.530051922860025) translate(5.01 402.0625)"/><use xlink:href="#e" transform="matrix(1,0,0,1,0,4.530051922860025) translate(5.01 450.0625)"/><use xlink:href="#z" transform="matrix(1,0,0,1,0,4.530051922860025) translate(5.01 498.0625)"/><use xlink:href="#A" transform="matrix(1,0,0,1,0,4.530051922860025) translate(127.12111111111112 498.0625)"/><use xlink:href="#B" transform="matrix(1,0,0,1,0,4.530051922860025) translate(258.12111111111113 498.0625)"/><path d="M1180 64.5c0-2.75 2.24-5 5-5h930c2.76 0 5 2.25 5 5v424.52c0 2.76-2.24 5-5 5h-930c-2.76 0-5-2.24-5-5z" stroke="#000" stroke-width="2" fill="#fff"/><g><use xlink:href="#C" transform="matrix(1,0,0,1,1180,59.50879218732575) translate(5.01 59.1875)"/><use xlink:href="#b" transform="matrix(1,0,0,1,1180,59.50879218732575) translate(111.67666666666668 59.1875)"/><use xlink:href="#h" transform="matrix(1,0,0,1,1180,59.50879218732575) translate(240.45444444444445 59.1875)"/><use xlink:href="#D" transform="matrix(1,0,0,1,1180,59.50879218732575) translate(274.8988888888889 59.1875)"/><use xlink:href="#e" transform="matrix(1,0,0,1,1180,59.50879218732575) translate(5.01 107.1875)"/><use xlink:href="#l" transform="matrix(1,0,0,1,1180,59.50879218732575) translate(5.01 155.1875)"/><use xlink:href="#E" transform="matrix(1,0,0,1,1180,59.50879218732575) translate(156.01 155.1875)"/><use xlink:href="#o" transform="matrix(1,0,0,1,1180,59.50879218732575) translate(324.45444444444445 155.1875)"/><use xlink:href="#p" transform="matrix(1,0,0,1,1180,59.50879218732575) translate(5.01 203.1875)"/><use xlink:href="#q" transform="matrix(1,0,0,1,1180,59.50879218732575) translate(27.23222222222222 203.1875)"/><use xlink:href="#r" transform="matrix(1,0,0,1,1180,59.50879218732575) translate(58.23222222222222 203.1875)"/><use xlink:href="#s" transform="matrix(1,0,0,1,1180,59.50879218732575) translate(191.45444444444445 203.1875)"/><use xlink:href="#t" transform="matrix(1,0,0,1,1180,59.50879218732575) translate(260.2322222222222 203.1875)"/><use xlink:href="#u" transform="matrix(1,0,0,1,1180,59.50879218732575) translate(341.34333333333336 203.1875)"/><use xlink:href="#v" transform="matrix(1,0,0,1,1180,59.50879218732575) translate(478.34333333333336 203.1875)"/><use xlink:href="#w" transform="matrix(1,0,0,1,1180,59.50879218732575) translate(593.6766666666667 203.1875)"/><use xlink:href="#p" transform="matrix(1,0,0,1,1180,59.50879218732575) translate(5.01 251.1875)"/><use xlink:href="#v" transform="matrix(1,0,0,1,1180,59.50879218732575) translate(27.23222222222222 251.1875)"/><use xlink:href="#x" transform="matrix(1,0,0,1,1180,59.50879218732575) translate(142.56555555555556 251.1875)"/><use xlink:href="#y" transform="matrix(1,0,0,1,1180,59.50879218732575) translate(5.01 299.1875)"/><use xlink:href="#e" transform="matrix(1,0,0,1,1180,59.50879218732575) translate(5.01 347.1875)"/><use xlink:href="#F" transform="matrix(1,0,0,1,1180,59.50879218732575) translate(5.01 395.1875)"/><use xlink:href="#h" transform="matrix(1,0,0,1,1180,59.50879218732575) translate(573.121111111111 395.1875)"/><use xlink:href="#B" transform="matrix(1,0,0,1,1180,59.50879218732575) translate(607.5655555555554 395.1875)"/></g><path d="M1021 276.77h122.55" stroke="#000" stroke-width="10" fill="none"/><path d="M1021 281.77h-1v-10h1z"/><path d="M1162.82 276.77l-14.27 4.63v-9.27z" stroke="#000" stroke-width="10"/><defs><path d="M24-231v-30h32v30H24zM24 0v-190h32V0H24" id="G"/><path d="M210-169c-67 3-38 105-44 169h-31v-121c0-29-5-50-35-48C34-165 62-65 56 0H25l-1-190h30c1 10-1 24 2 32 10-44 99-50 107 0 11-21 27-35 58-36 85-2 47 119 55 194h-31v-121c0-29-5-49-35-48" id="H"/><path d="M115-194c55 1 70 41 70 98S169 2 115 4C84 4 66-9 55-30l1 105H24l-1-265h31l2 30c10-21 28-34 59-34zm-8 174c40 0 45-34 45-75s-6-73-45-74c-42 0-51 32-51 76 0 43 10 73 51 73" id="I"/><path d="M100-194c62-1 85 37 85 99 1 63-27 99-86 99S16-35 15-95c0-66 28-99 85-99zM99-20c44 1 53-31 53-75 0-43-8-75-51-75s-53 32-53 75 10 74 51 75" id="J"/><path d="M114-163C36-179 61-72 57 0H25l-1-190h30c1 12-1 29 2 39 6-27 23-49 58-41v29" id="K"/><path d="M59-47c-2 24 18 29 38 22v24C64 9 27 4 27-40v-127H5v-23h24l9-43h21v43h35v23H59v120" id="L"/><g id="a"><use transform="matrix(0.1111111111111111,0,0,0.1111111111111111,0,0)" xlink:href="#G"/><use transform="matrix(0.1111111111111111,0,0,0.1111111111111111,8.777777777777777,0)" xlink:href="#H"/><use transform="matrix(0.1111111111111111,0,0,0.1111111111111111,42,0)" xlink:href="#I"/><use transform="matrix(0.1111111111111111,0,0,0.1111111111111111,64.22222222222223,0)" xlink:href="#J"/><use transform="matrix(0.1111111111111111,0,0,0.1111111111111111,86.44444444444446,0)" xlink:href="#K"/><use transform="matrix(0.1111111111111111,0,0,0.1111111111111111,99.66666666666669,0)" xlink:href="#L"/></g><path d="M24 0v-261h32V0H24" id="M"/><path d="M100-194c63 0 86 42 84 106H49c0 40 14 67 53 68 26 1 43-12 49-29l28 8c-11 28-37 45-77 45C44 4 14-33 15-96c1-61 26-98 85-98zm52 81c6-60-76-77-97-28-3 7-6 17-6 28h103" id="N"/><path d="M141-36C126-15 110 5 73 4 37 3 15-17 15-53c-1-64 63-63 125-63 3-35-9-54-41-54-24 1-41 7-42 31l-33-3c5-37 33-52 76-52 45 0 72 20 72 64v82c-1 20 7 32 28 27v20c-31 9-61-2-59-35zM48-53c0 20 12 33 32 33 41-3 63-29 60-74-43 2-92-5-92 41" id="O"/><path d="M135-143c-3-34-86-38-87 0 15 53 115 12 119 90S17 21 10-45l28-5c4 36 97 45 98 0-10-56-113-15-118-90-4-57 82-63 122-42 12 7 21 19 24 35" id="P"/><g id="b"><use transform="matrix(0.1111111111111111,0,0,0.1111111111111111,0,0)" xlink:href="#I"/><use transform="matrix(0.1111111111111111,0,0,0.1111111111111111,22.22222222222222,0)" xlink:href="#M"/><use transform="matrix(0.1111111111111111,0,0,0.1111111111111111,31,0)" xlink:href="#N"/><use transform="matrix(0.1111111111111111,0,0,0.1111111111111111,53.22222222222222,0)" xlink:href="#O"/><use transform="matrix(0.1111111111111111,0,0,0.1111111111111111,75.44444444444444,0)" xlink:href="#P"/><use transform="matrix(0.1111111111111111,0,0,0.1111111111111111,95.44444444444444,0)" xlink:href="#N"/></g><path d="M101-234c-31-9-42 10-38 44h38v23H63V0H32v-167H5v-23h27c-7-52 17-82 69-68v24" id="Q"/><g id="c"><use transform="matrix(0.1111111111111111,0,0,0.1111111111111111,0,0)" xlink:href="#Q"/><use transform="matrix(0.1111111111111111,0,0,0.1111111111111111,11.11111111111111,0)" xlink:href="#K"/><use transform="matrix(0.1111111111111111,0,0,0.1111111111111111,24.333333333333332,0)" xlink:href="#J"/><use transform="matrix(0.1111111111111111,0,0,0.1111111111111111,46.55555555555556,0)" xlink:href="#H"/></g><path d="M47-170H22l-4-78h33" id="R"/><path d="M33 0v-38h34V0H33" id="S"/><path d="M0 4l72-265h28L28 4H0" id="T"/><g id="d"><use transform="matrix(0.1111111111111111,0,0,0.1111111111111111,0,0)" xlink:href="#R"/><use transform="matrix(0.1111111111111111,0,0,0.1111111111111111,7.555555555555555,0)" xlink:href="#S"/><use transform="matrix(0.1111111111111111,0,0,0.1111111111111111,18.666666666666664,0)" xlink:href="#T"/><use transform="matrix(0.1111111111111111,0,0,0.1111111111111111,29.777777777777775,0)" xlink:href="#I"/><use transform="matrix(0.1111111111111111,0,0,0.1111111111111111,52,0)" xlink:href="#M"/><use transform="matrix(0.1111111111111111,0,0,0.1111111111111111,60.77777777777777,0)" xlink:href="#N"/><use transform="matrix(0.1111111111111111,0,0,0.1111111111111111,83,0)" xlink:href="#O"/><use transform="matrix(0.1111111111111111,0,0,0.1111111111111111,105.22222222222223,0)" xlink:href="#P"/><use transform="matrix(0.1111111111111111,0,0,0.1111111111111111,125.22222222222224,0)" xlink:href="#N"/><use transform="matrix(0.1111111111111111,0,0,0.1111111111111111,147.44444444444446,0)" xlink:href="#R"/></g><path d="M179-190L93 31C79 59 56 82 12 73V49c39 6 53-20 64-50L1-190h34L92-34l54-156h33" id="U"/><g id="f"><use transform="matrix(0.1111111111111111,0,0,0.1111111111111111,0,0)" xlink:href="#L"/><use transform="matrix(0.1111111111111111,0,0,0.1111111111111111,11.11111111111111,0)" xlink:href="#U"/><use transform="matrix(0.1111111111111111,0,0,0.1111111111111111,31.11111111111111,0)" xlink:href="#I"/><use transform="matrix(0.1111111111111111,0,0,0.1111111111111111,53.33333333333333,0)" xlink:href="#N"/></g><path d="M195 0l-74-108L45 0H8l94-129-87-119h37l69 98 67-98h37l-84 118L233 0h-38" id="V"/><use transform="matrix(0.1111111111111111,0,0,0.1111111111111111,0,0)" xlink:href="#V" id="g"/><path d="M18-150v-26h174v26H18zm0 90v-26h174v26H18" id="W"/><use transform="matrix(0.1111111111111111,0,0,0.1111111111111111,0,0)" xlink:href="#W" id="h"/><path d="M117-194c89-4 53 116 60 194h-32v-121c0-31-8-49-39-48C34-167 62-67 57 0H25l-1-190h30c1 10-1 24 2 32 11-22 29-35 61-36" id="X"/><path d="M177-190C167-65 218 103 67 71c-23-6-38-20-44-43l32-5c15 47 100 32 89-28v-30C133-14 115 1 83 1 29 1 15-40 15-95c0-56 16-97 71-98 29-1 48 16 59 35 1-10 0-23 2-32h30zM94-22c36 0 50-32 50-73 0-42-14-75-50-75-39 0-46 34-46 75s6 73 46 73" id="Y"/><g id="i"><use transform="matrix(0.1111111111111111,0,0,0.1111111111111111,0,0)" xlink:href="#P"/><use transform="matrix(0.1111111111111111,0,0,0.1111111111111111,20,0)" xlink:href="#L"/><use transform="matrix(0.1111111111111111,0,0,0.1111111111111111,31.11111111111111,0)" xlink:href="#K"/><use transform="matrix(0.1111111111111111,0,0,0.1111111111111111,44.33333333333333,0)" xlink:href="#G"/><use transform="matrix(0.1111111111111111,0,0,0.1111111111111111,53.11111111111111,0)" xlink:href="#X"/><use transform="matrix(0.1111111111111111,0,0,0.1111111111111111,75.33333333333333,0)" xlink:href="#Y"/></g><path d="M32 76v-337h29V76H32" id="Z"/><use transform="matrix(0.1111111111111111,0,0,0.1111111111111111,0,0)" xlink:href="#Z" id="j"/><path d="M33 0v-248h34V0H33" id="aa"/><path d="M160-131c35 5 61 23 61 61C221 17 115-2 30 0v-248c76 3 177-17 177 60 0 33-19 50-47 57zm-97-11c50-1 110 9 110-42 0-47-63-36-110-37v79zm0 115c55-2 124 14 124-45 0-56-70-42-124-44v89" id="ab"/><path d="M84 4C-5 8 30-112 23-190h32v120c0 31 7 50 39 49 72-2 45-101 50-169h31l1 190h-30c-1-10 1-25-2-33-11 22-28 36-60 37" id="ac"/><path d="M140-251c81 0 123 46 123 126C263-46 219 4 140 4 59 4 17-45 17-125s42-126 123-126zm0 227c63 0 89-41 89-101s-29-99-89-99c-61 0-89 39-89 99S79-25 140-24" id="ad"/><g id="k"><use transform="matrix(0.1111111111111111,0,0,0.1111111111111111,0,0)" xlink:href="#aa"/><use transform="matrix(0.1111111111111111,0,0,0.1111111111111111,11.11111111111111,0)" xlink:href="#ab"/><use transform="matrix(0.1111111111111111,0,0,0.1111111111111111,37.77777777777777,0)" xlink:href="#ac"/><use transform="matrix(0.1111111111111111,0,0,0.1111111111111111,60,0)" xlink:href="#K"/><use transform="matrix(0.1111111111111111,0,0,0.1111111111111111,73.22222222222221,0)" xlink:href="#X"/><use transform="matrix(0.1111111111111111,0,0,0.1111111111111111,95.44444444444443,0)" xlink:href="#ad"/><use transform="matrix(0.1111111111111111,0,0,0.1111111111111111,126.55555555555554,0)" xlink:href="#ac"/><use transform="matrix(0.1111111111111111,0,0,0.1111111111111111,148.77777777777777,0)" xlink:href="#L"/></g><path d="M96-169c-40 0-48 33-48 73s9 75 48 75c24 0 41-14 43-38l32 2c-6 37-31 61-74 61-59 0-76-41-82-99-10-93 101-131 147-64 4 7 5 14 7 22l-32 3c-4-21-16-35-41-35" id="ae"/><g id="l"><use transform="matrix(0.1111111111111111,0,0,0.1111111111111111,0,0)" xlink:href="#Q"/><use transform="matrix(0.1111111111111111,0,0,0.1111111111111111,11.11111111111111,0)" xlink:href="#ac"/><use transform="matrix(0.1111111111111111,0,0,0.1111111111111111,33.33333333333333,0)" xlink:href="#X"/><use transform="matrix(0.1111111111111111,0,0,0.1111111111111111,55.55555555555555,0)" xlink:href="#ae"/><use transform="matrix(0.1111111111111111,0,0,0.1111111111111111,75.55555555555554,0)" xlink:href="#L"/><use transform="matrix(0.1111111111111111,0,0,0.1111111111111111,86.66666666666666,0)" xlink:href="#G"/><use transform="matrix(0.1111111111111111,0,0,0.1111111111111111,95.44444444444443,0)" xlink:href="#J"/><use transform="matrix(0.1111111111111111,0,0,0.1111111111111111,117.66666666666666,0)" xlink:href="#X"/></g><path d="M87 75C49 33 22-17 22-94c0-76 28-126 65-167h31c-38 41-64 92-64 168S80 34 118 75H87" id="af"/><path d="M33-154v-36h34v36H33zM33 0v-36h34V0H33" id="ag"/><g id="m"><use transform="matrix(0.1111111111111111,0,0,0.1111111111111111,0,0)" xlink:href="#U"/><use transform="matrix(0.1111111111111111,0,0,0.1111111111111111,20,0)" xlink:href="#J"/><use transform="matrix(0.1111111111111111,0,0,0.1111111111111111,42.22222222222222,0)" xlink:href="#M"/><use transform="matrix(0.1111111111111111,0,0,0.1111111111111111,51,0)" xlink:href="#J"/><use transform="matrix(0.1111111111111111,0,0,0.1111111111111111,73.22222222222223,0)" xlink:href="#af"/><use transform="matrix(0.1111111111111111,0,0,0.1111111111111111,86.44444444444446,0)" xlink:href="#O"/><use transform="matrix(0.1111111111111111,0,0,0.1111111111111111,108.66666666666669,0)" xlink:href="#K"/><use transform="matrix(0.1111111111111111,0,0,0.1111111111111111,121.88888888888891,0)" xlink:href="#Y"/><use transform="matrix(0.1111111111111111,0,0,0.1111111111111111,144.11111111111114,0)" xlink:href="#ag"/></g><path d="M33-261c38 41 65 92 65 168S71 34 33 75H2C39 34 66-17 66-93S39-220 2-261h31" id="ah"/><g id="n"><use transform="matrix(0.1111111111111111,0,0,0.1111111111111111,0,0)" xlink:href="#V"/><use transform="matrix(0.1111111111111111,0,0,0.1111111111111111,26.666666666666664,0)" xlink:href="#ah"/></g><path d="M39-94c74 12-11 154 75 146v23c-44 4-70-10-70-52C44-23 55-84 6-82v-22c81 4-7-162 84-157h24v23c-82-15-2 131-75 144" id="ai"/><use transform="matrix(0.1111111111111111,0,0,0.1111111111111111,0,0)" xlink:href="#ai" id="o"/><g id="q"><use transform="matrix(0.1111111111111111,0,0,0.1111111111111111,0,0)" xlink:href="#G"/><use transform="matrix(0.1111111111111111,0,0,0.1111111111111111,8.777777777777777,0)" xlink:href="#Q"/></g><g id="r"><use transform="matrix(0.1111111111111111,0,0,0.1111111111111111,0,0)" xlink:href="#af"/><use transform="matrix(0.1111111111111111,0,0,0.1111111111111111,13.222222222222221,0)" xlink:href="#L"/><use transform="matrix(0.1111111111111111,0,0,0.1111111111111111,24.333333333333332,0)" xlink:href="#U"/><use transform="matrix(0.1111111111111111,0,0,0.1111111111111111,44.33333333333333,0)" xlink:href="#I"/><use transform="matrix(0.1111111111111111,0,0,0.1111111111111111,66.55555555555554,0)" xlink:href="#N"/><use transform="matrix(0.1111111111111111,0,0,0.1111111111111111,88.77777777777777,0)" xlink:href="#J"/><use transform="matrix(0.1111111111111111,0,0,0.1111111111111111,111,0)" xlink:href="#Q"/></g><g id="s"><use transform="matrix(0.1111111111111111,0,0,0.1111111111111111,0,0)" xlink:href="#O"/><use transform="matrix(0.1111111111111111,0,0,0.1111111111111111,22.22222222222222,0)" xlink:href="#K"/><use transform="matrix(0.1111111111111111,0,0,0.1111111111111111,35.44444444444444,0)" xlink:href="#Y"/></g><g id="t"><use transform="matrix(0.1111111111111111,0,0,0.1111111111111111,0,0)" xlink:href="#W"/><use transform="matrix(0.1111111111111111,0,0,0.1111111111111111,23.333333333333332,0)" xlink:href="#W"/><use transform="matrix(0.1111111111111111,0,0,0.1111111111111111,46.666666666666664,0)" xlink:href="#W"/></g><g id="u"><use transform="matrix(0.1111111111111111,0,0,0.1111111111111111,0,0)" xlink:href="#R"/><use transform="matrix(0.1111111111111111,0,0,0.1111111111111111,7.555555555555555,0)" xlink:href="#P"/><use transform="matrix(0.1111111111111111,0,0,0.1111111111111111,27.555555555555557,0)" xlink:href="#L"/><use transform="matrix(0.1111111111111111,0,0,0.1111111111111111,38.66666666666667,0)" xlink:href="#K"/><use transform="matrix(0.1111111111111111,0,0,0.1111111111111111,51.88888888888889,0)" xlink:href="#G"/><use transform="matrix(0.1111111111111111,0,0,0.1111111111111111,60.66666666666668,0)" xlink:href="#X"/><use transform="matrix(0.1111111111111111,0,0,0.1111111111111111,82.88888888888889,0)" xlink:href="#Y"/><use transform="matrix(0.1111111111111111,0,0,0.1111111111111111,105.11111111111111,0)" xlink:href="#R"/><use transform="matrix(0.1111111111111111,0,0,0.1111111111111111,112.66666666666667,0)" xlink:href="#ah"/></g><g id="v"><use transform="matrix(0.1111111111111111,0,0,0.1111111111111111,0,0)" xlink:href="#K"/><use transform="matrix(0.1111111111111111,0,0,0.1111111111111111,13.222222222222221,0)" xlink:href="#N"/><use transform="matrix(0.1111111111111111,0,0,0.1111111111111111,35.44444444444444,0)" xlink:href="#L"/><use transform="matrix(0.1111111111111111,0,0,0.1111111111111111,46.55555555555556,0)" xlink:href="#ac"/><use transform="matrix(0.1111111111111111,0,0,0.1111111111111111,68.77777777777777,0)" xlink:href="#K"/><use transform="matrix(0.1111111111111111,0,0,0.1111111111111111,82,0)" xlink:href="#X"/></g><g id="w"><use transform="matrix(0.1111111111111111,0,0,0.1111111111111111,0,0)" xlink:href="#O"/><use transform="matrix(0.1111111111111111,0,0,0.1111111111111111,22.22222222222222,0)" xlink:href="#K"/><use transform="matrix(0.1111111111111111,0,0,0.1111111111111111,35.44444444444444,0)" xlink:href="#Y"/></g><path d="M106-169C34-169 62-67 57 0H25v-261h32l-1 103c12-21 28-36 61-36 89 0 53 116 60 194h-32v-121c2-32-8-49-39-48" id="aj"/><path d="M240 0l2-218c-23 76-54 145-80 218h-23L58-218 59 0H30v-248h44l77 211c21-75 51-140 76-211h43V0h-30" id="ak"/><g id="x"><use transform="matrix(0.1111111111111111,0,0,0.1111111111111111,0,0)" xlink:href="#I"/><use transform="matrix(0.1111111111111111,0,0,0.1111111111111111,22.22222222222222,0)" xlink:href="#M"/><use transform="matrix(0.1111111111111111,0,0,0.1111111111111111,31,0)" xlink:href="#N"/><use transform="matrix(0.1111111111111111,0,0,0.1111111111111111,53.22222222222222,0)" xlink:href="#O"/><use transform="matrix(0.1111111111111111,0,0,0.1111111111111111,75.44444444444444,0)" xlink:href="#P"/><use transform="matrix(0.1111111111111111,0,0,0.1111111111111111,95.44444444444444,0)" xlink:href="#N"/><use transform="matrix(0.1111111111111111,0,0,0.1111111111111111,117.66666666666666,0)" xlink:href="#af"/><use transform="matrix(0.1111111111111111,0,0,0.1111111111111111,130.88888888888889,0)" xlink:href="#O"/><use transform="matrix(0.1111111111111111,0,0,0.1111111111111111,153.11111111111111,0)" xlink:href="#K"/><use transform="matrix(0.1111111111111111,0,0,0.1111111111111111,166.33333333333334,0)" xlink:href="#Y"/><use transform="matrix(0.1111111111111111,0,0,0.1111111111111111,188.55555555555557,0)" xlink:href="#S"/><use transform="matrix(0.1111111111111111,0,0,0.1111111111111111,199.66666666666669,0)" xlink:href="#aj"/><use transform="matrix(0.1111111111111111,0,0,0.1111111111111111,221.8888888888889,0)" xlink:href="#N"/><use transform="matrix(0.1111111111111111,0,0,0.1111111111111111,244.11111111111114,0)" xlink:href="#M"/><use transform="matrix(0.1111111111111111,0,0,0.1111111111111111,252.8888888888889,0)" xlink:href="#I"/><use transform="matrix(0.1111111111111111,0,0,0.1111111111111111,275.11111111111114,0)" xlink:href="#ak"/><use transform="matrix(0.1111111111111111,0,0,0.1111111111111111,308.33333333333337,0)" xlink:href="#N"/><use transform="matrix(0.1111111111111111,0,0,0.1111111111111111,330.5555555555556,0)" xlink:href="#ah"/></g><path d="M76-40C78 24 84 88 6 75V52C86 64 9-79 80-94c-40-6-34-59-34-106 1-29-11-41-40-38v-23c44-4 70 10 70 52 0 47-12 108 38 105v22c-26 1-39 14-38 42" id="al"/><use transform="matrix(0.1111111111111111,0,0,0.1111111111111111,0,0)" xlink:href="#al" id="y"/><path d="M141 0L90-78 38 0H4l68-98-65-92h35l48 74 47-74h35l-64 92 68 98h-35" id="am"/><g id="z"><use transform="matrix(0.1111111111111111,0,0,0.1111111111111111,0,0)" xlink:href="#N"/><use transform="matrix(0.1111111111111111,0,0,0.1111111111111111,22.22222222222222,0)" xlink:href="#am"/><use transform="matrix(0.1111111111111111,0,0,0.1111111111111111,42.22222222222222,0)" xlink:href="#I"/><use transform="matrix(0.1111111111111111,0,0,0.1111111111111111,64.44444444444444,0)" xlink:href="#J"/><use transform="matrix(0.1111111111111111,0,0,0.1111111111111111,86.66666666666666,0)" xlink:href="#K"/><use transform="matrix(0.1111111111111111,0,0,0.1111111111111111,99.88888888888889,0)" xlink:href="#L"/></g><path d="M85-194c31 0 48 13 60 33l-1-100h32l1 261h-30c-2-10 0-23-3-31C134-8 116 4 85 4 32 4 16-35 15-94c0-66 23-100 70-100zm9 24c-40 0-46 34-46 75 0 40 6 74 45 74 42 0 51-32 51-76 0-42-9-74-50-73" id="an"/><g id="A"><use transform="matrix(0.1111111111111111,0,0,0.1111111111111111,0,0)" xlink:href="#an"/><use transform="matrix(0.1111111111111111,0,0,0.1111111111111111,22.22222222222222,0)" xlink:href="#N"/><use transform="matrix(0.1111111111111111,0,0,0.1111111111111111,44.44444444444444,0)" xlink:href="#Q"/><use transform="matrix(0.1111111111111111,0,0,0.1111111111111111,55.55555555555556,0)" xlink:href="#O"/><use transform="matrix(0.1111111111111111,0,0,0.1111111111111111,77.77777777777777,0)" xlink:href="#ac"/><use transform="matrix(0.1111111111111111,0,0,0.1111111111111111,100,0)" xlink:href="#M"/><use transform="matrix(0.1111111111111111,0,0,0.1111111111111111,108.77777777777777,0)" xlink:href="#L"/></g><g id="B"><use transform="matrix(0.1111111111111111,0,0,0.1111111111111111,0,0)" xlink:href="#U"/><use transform="matrix(0.1111111111111111,0,0,0.1111111111111111,20,0)" xlink:href="#J"/><use transform="matrix(0.1111111111111111,0,0,0.1111111111111111,42.22222222222222,0)" xlink:href="#M"/><use transform="matrix(0.1111111111111111,0,0,0.1111111111111111,51,0)" xlink:href="#J"/></g><g id="C"><use transform="matrix(0.1111111111111111,0,0,0.1111111111111111,0,0)" xlink:href="#ae"/><use transform="matrix(0.1111111111111111,0,0,0.1111111111111111,20,0)" xlink:href="#J"/><use transform="matrix(0.1111111111111111,0,0,0.1111111111111111,42.22222222222222,0)" xlink:href="#X"/><use transform="matrix(0.1111111111111111,0,0,0.1111111111111111,64.44444444444444,0)" xlink:href="#P"/><use transform="matrix(0.1111111111111111,0,0,0.1111111111111111,84.44444444444444,0)" xlink:href="#L"/></g><path d="M-5 72V49h209v23H-5" id="ao"/><path d="M206 0h-36l-40-164L89 0H53L-1-190h32L70-26l43-164h34l41 164 42-164h31" id="ap"/><path d="M115-194c53 0 69 39 70 98 0 66-23 100-70 100C84 3 66-7 56-30L54 0H23l1-261h32v101c10-23 28-34 59-34zm-8 174c40 0 45-34 45-75 0-40-5-75-45-74-42 0-51 32-51 76 0 43 10 73 51 73" id="aq"/><path d="M143 0L79-87 56-68V0H24v-261h32v163l83-92h37l-77 82L181 0h-38" id="ar"/><path d="M145-31C134-9 116 4 85 4 32 4 16-35 15-94c0-59 17-99 70-100 32-1 48 14 60 33 0-11-1-24 2-32h30l-1 268h-32zM93-21c41 0 51-33 51-76s-8-73-50-73c-40 0-46 35-46 75s5 74 45 74" id="as"/><g id="D"><use transform="matrix(0.1111111111111111,0,0,0.1111111111111111,0,0)" xlink:href="#ao"/><use transform="matrix(0.1111111111111111,0,0,0.1111111111111111,22.22222222222222,0)" xlink:href="#ao"/><use transform="matrix(0.1111111111111111,0,0,0.1111111111111111,44.44444444444444,0)" xlink:href="#ap"/><use transform="matrix(0.1111111111111111,0,0,0.1111111111111111,73.22222222222221,0)" xlink:href="#N"/><use transform="matrix(0.1111111111111111,0,0,0.1111111111111111,95.44444444444443,0)" xlink:href="#aq"/><use transform="matrix(0.1111111111111111,0,0,0.1111111111111111,117.66666666666666,0)" xlink:href="#I"/><use transform="matrix(0.1111111111111111,0,0,0.1111111111111111,139.88888888888889,0)" xlink:href="#O"/><use transform="matrix(0.1111111111111111,0,0,0.1111111111111111,162.11111111111111,0)" xlink:href="#ae"/><use transform="matrix(0.1111111111111111,0,0,0.1111111111111111,182.11111111111111,0)" xlink:href="#ar"/><use transform="matrix(0.1111111111111111,0,0,0.1111111111111111,202.11111111111111,0)" xlink:href="#ao"/><use transform="matrix(0.1111111111111111,0,0,0.1111111111111111,224.33333333333334,0)" xlink:href="#K"/><use transform="matrix(0.1111111111111111,0,0,0.1111111111111111,237.5555555555556,0)" xlink:href="#N"/><use transform="matrix(0.1111111111111111,0,0,0.1111111111111111,259.77777777777777,0)" xlink:href="#as"/><use transform="matrix(0.1111111111111111,0,0,0.1111111111111111,282,0)" xlink:href="#ac"/><use transform="matrix(0.1111111111111111,0,0,0.1111111111111111,304.22222222222223,0)" xlink:href="#G"/><use transform="matrix(0.1111111111111111,0,0,0.1111111111111111,313,0)" xlink:href="#K"/><use transform="matrix(0.1111111111111111,0,0,0.1111111111111111,326.22222222222223,0)" xlink:href="#N"/><use transform="matrix(0.1111111111111111,0,0,0.1111111111111111,348.44444444444446,0)" xlink:href="#ao"/><use transform="matrix(0.1111111111111111,0,0,0.1111111111111111,370.6666666666667,0)" xlink:href="#ao"/><use transform="matrix(0.1111111111111111,0,0,0.1111111111111111,392.8888888888889,0)" xlink:href="#af"/><use transform="matrix(0.1111111111111111,0,0,0.1111111111111111,406.11111111111114,0)" xlink:href="#R"/><use transform="matrix(0.1111111111111111,0,0,0.1111111111111111,413.6666666666667,0)" xlink:href="#S"/><use transform="matrix(0.1111111111111111,0,0,0.1111111111111111,424.77777777777777,0)" xlink:href="#T"/><use transform="matrix(0.1111111111111111,0,0,0.1111111111111111,435.88888888888886,0)" xlink:href="#I"/><use transform="matrix(0.1111111111111111,0,0,0.1111111111111111,458.1111111111111,0)" xlink:href="#M"/><use transform="matrix(0.1111111111111111,0,0,0.1111111111111111,466.88888888888886,0)" xlink:href="#N"/><use transform="matrix(0.1111111111111111,0,0,0.1111111111111111,489.1111111111111,0)" xlink:href="#O"/><use transform="matrix(0.1111111111111111,0,0,0.1111111111111111,511.3333333333333,0)" xlink:href="#P"/><use transform="matrix(0.1111111111111111,0,0,0.1111111111111111,531.3333333333333,0)" xlink:href="#N"/><use transform="matrix(0.1111111111111111,0,0,0.1111111111111111,553.5555555555554,0)" xlink:href="#R"/><use transform="matrix(0.1111111111111111,0,0,0.1111111111111111,561.111111111111,0)" xlink:href="#ah"/></g><g id="E"><use transform="matrix(0.1111111111111111,0,0,0.1111111111111111,0,0)" xlink:href="#U"/><use transform="matrix(0.1111111111111111,0,0,0.1111111111111111,20,0)" xlink:href="#J"/><use transform="matrix(0.1111111111111111,0,0,0.1111111111111111,42.22222222222222,0)" xlink:href="#M"/><use transform="matrix(0.1111111111111111,0,0,0.1111111111111111,51,0)" xlink:href="#J"/><use transform="matrix(0.1111111111111111,0,0,0.1111111111111111,73.22222222222223,0)" xlink:href="#af"/><use transform="matrix(0.1111111111111111,0,0,0.1111111111111111,86.44444444444446,0)" xlink:href="#O"/><use transform="matrix(0.1111111111111111,0,0,0.1111111111111111,108.66666666666669,0)" xlink:href="#K"/><use transform="matrix(0.1111111111111111,0,0,0.1111111111111111,121.88888888888891,0)" xlink:href="#Y"/><use transform="matrix(0.1111111111111111,0,0,0.1111111111111111,144.11111111111114,0)" xlink:href="#ah"/></g><path d="M26 75v-336h71v23H56V52h41v23H26" id="at"/><path d="M3 75V52h41v-290H3v-23h71V75H3" id="au"/><g id="F"><use transform="matrix(0.1111111111111111,0,0,0.1111111111111111,0,0)" xlink:href="#ao"/><use transform="matrix(0.1111111111111111,0,0,0.1111111111111111,22.22222222222222,0)" xlink:href="#ao"/><use transform="matrix(0.1111111111111111,0,0,0.1111111111111111,44.44444444444444,0)" xlink:href="#ap"/><use transform="matrix(0.1111111111111111,0,0,0.1111111111111111,73.22222222222221,0)" xlink:href="#N"/><use transform="matrix(0.1111111111111111,0,0,0.1111111111111111,95.44444444444443,0)" xlink:href="#aq"/><use transform="matrix(0.1111111111111111,0,0,0.1111111111111111,117.66666666666666,0)" xlink:href="#I"/><use transform="matrix(0.1111111111111111,0,0,0.1111111111111111,139.88888888888889,0)" xlink:href="#O"/><use transform="matrix(0.1111111111111111,0,0,0.1111111111111111,162.11111111111111,0)" xlink:href="#ae"/><use transform="matrix(0.1111111111111111,0,0,0.1111111111111111,182.11111111111111,0)" xlink:href="#ar"/><use transform="matrix(0.1111111111111111,0,0,0.1111111111111111,202.11111111111111,0)" xlink:href="#ao"/><use transform="matrix(0.1111111111111111,0,0,0.1111111111111111,224.33333333333334,0)" xlink:href="#N"/><use transform="matrix(0.1111111111111111,0,0,0.1111111111111111,246.5555555555556,0)" xlink:href="#am"/><use transform="matrix(0.1111111111111111,0,0,0.1111111111111111,266.55555555555554,0)" xlink:href="#I"/><use transform="matrix(0.1111111111111111,0,0,0.1111111111111111,288.77777777777777,0)" xlink:href="#J"/><use transform="matrix(0.1111111111111111,0,0,0.1111111111111111,311,0)" xlink:href="#K"/><use transform="matrix(0.1111111111111111,0,0,0.1111111111111111,324.22222222222223,0)" xlink:href="#L"/><use transform="matrix(0.1111111111111111,0,0,0.1111111111111111,335.3333333333333,0)" xlink:href="#P"/><use transform="matrix(0.1111111111111111,0,0,0.1111111111111111,355.3333333333333,0)" xlink:href="#ao"/><use transform="matrix(0.1111111111111111,0,0,0.1111111111111111,377.55555555555554,0)" xlink:href="#ao"/><use transform="matrix(0.1111111111111111,0,0,0.1111111111111111,399.77777777777777,0)" xlink:href="#at"/><use transform="matrix(0.1111111111111111,0,0,0.1111111111111111,410.88888888888886,0)" xlink:href="#R"/><use transform="matrix(0.1111111111111111,0,0,0.1111111111111111,418.4444444444444,0)" xlink:href="#an"/><use transform="matrix(0.1111111111111111,0,0,0.1111111111111111,440.66666666666663,0)" xlink:href="#N"/><use transform="matrix(0.1111111111111111,0,0,0.1111111111111111,462.88888888888886,0)" xlink:href="#Q"/><use transform="matrix(0.1111111111111111,0,0,0.1111111111111111,474,0)" xlink:href="#O"/><use transform="matrix(0.1111111111111111,0,0,0.1111111111111111,496.2222222222222,0)" xlink:href="#ac"/><use transform="matrix(0.1111111111111111,0,0,0.1111111111111111,518.4444444444443,0)" xlink:href="#M"/><use transform="matrix(0.1111111111111111,0,0,0.1111111111111111,527.2222222222222,0)" xlink:href="#L"/><use transform="matrix(0.1111111111111111,0,0,0.1111111111111111,538.3333333333333,0)" xlink:href="#R"/><use transform="matrix(0.1111111111111111,0,0,0.1111111111111111,545.8888888888888,0)" xlink:href="#au"/></g></defs></g></svg>